<svg xmlns="http://www.w3.org/2000/svg" width="1440" height="560" preserveAspectRatio="none"><g fill="none" mask="url(&quot;#a&quot;)"><path fill="rgba(27, 66, 143, 1)" d="M1488 560H0V322.48q18.78-101.22 120-82.44 52.16-67.84 120-15.68 54.84-65.16 120-10.32 62.98-9.03 72 53.95 48.74-23.26 72 25.48 61.58-10.42 72 51.16 50.36-69.64 120-19.28 7.62-64.38 72-56.77 41.12-30.89 72 10.23 44.53-75.47 120-30.94 12.69-59.31 72-46.62 80.97 8.97 72 89.95 79.8-40.2 120 39.59 16.31-103.69 120-87.38 11.64-60.36 72-48.72 108.68 36.68 72 145.36z"/><path fill="rgba(178, 207, 255, 1)" d="M1488 560H0V412.96q70.82-1.18 72 69.65 18.88-53.11 72-34.23 14.92-57.08 72-42.16 25.8-94.2 120-68.39 69.02-50.98 120 18.03 116.92-3.08 120 113.85 11.05-60.95 72-49.9 35.46-84.54 120-49.08 24.69-47.31 72-22.62 82.64-37.36 120 45.28 63.93-8.07 72 55.86 54.06-17.94 72 36.12 29.09-90.91 120-61.82 50.27-69.73 120-19.46 66.71-5.29 72 61.43 45.39-26.61 72 18.78z"/><path fill="rgba(255, 255, 255, 1)" d="M1488 560H0V452.48q56.52-63.48 120-6.96 54.69-17.31 72 37.38 76.1 4.1 72 80.19 80.34-39.66 120 40.68 7.47-64.53 72-57.07 20.88-99.12 120-78.25 43.02-28.98 72 14.04 110.05-9.95 120 100.09 25.32-46.68 72-21.36 1.26-70.74 72-69.48 25.13-46.87 72-21.74 54.96-17.04 72 37.92 8.54-63.46 72-54.93 53.64-66.36 120-12.72 114.49-5.51 120 108.99 15.19-104.81 120-89.61z"/></g><defs><mask id="a"><path fill="#fff" d="M0 0h1440v560H0z"/></mask></defs></svg>